<svg width="60" height="70" viewBox="0 0 60 70" fill="none" xmlns="http://www.w3.org/2000/svg">
<path d="M4.69775 0.499512C2.10324 0.499512 0 2.57539 0 5.13615V64.8613C0 67.4221 2.10324 69.4979 4.69775 69.4979H46.3333C48.9278 69.4979 51.0311 67.4221 51.0311 64.8613V14.797C51.0311 13.8654 50.6561 12.9721 49.9887 12.3132L39.0615 1.52815C38.3941 0.86957 37.4889 0.499512 36.545 0.499512L4.69775 0.499512Z" fill="#F5F5F5"/>
<path d="M49.9891 12.311L42.746 5.16211L42.7202 17.154C42.7186 17.9067 43.3364 18.5179 44.0991 18.5179C44.8607 18.5179 45.478 19.1273 45.478 19.8789V64.8591C45.478 67.4199 43.3748 69.4957 40.7803 69.4957H46.3336C48.9281 69.4957 51.0313 67.4199 51.0313 64.8591V19.4961V14.7947C51.0316 13.8631 50.6567 12.9697 49.9891 12.311Z" fill="#EAEAEA"/>
<path d="M49.9886 12.3133L39.0614 1.52827C38.7572 1.22802 38.4031 0.988549 38.019 0.815918V8.70546C38.019 11.2662 40.1223 13.3421 42.7168 13.3421H50.7103C50.5355 12.9629 50.2929 12.6136 49.9886 12.3133Z" fill="#A8D0D5"/>
<path d="M16.9685 8.15662H6.53369C5.9508 8.15662 5.47852 7.69034 5.47852 7.11518C5.47852 6.54001 5.95094 6.07373 6.53369 6.07373H16.9685C17.5514 6.07373 18.0237 6.54001 18.0237 7.11518C18.0237 7.69034 17.5514 8.15662 16.9685 8.15662Z" fill="#3693BD"/>
<path d="M16.9685 14.4125H6.53369C5.9508 14.4125 5.47852 13.9462 5.47852 13.371C5.47852 12.7959 5.95094 12.3296 6.53369 12.3296H16.9685C17.5514 12.3296 18.0237 12.7959 18.0237 13.371C18.0237 13.9462 17.5514 14.4125 16.9685 14.4125Z" fill="#3693BD"/>
<path d="M45.2632 69.5008C53.4021 69.5008 60.0001 62.9478 60.0001 54.8644C60.0001 46.781 53.4021 40.228 45.2632 40.228C37.1243 40.228 30.5264 46.781 30.5264 54.8644C30.5264 62.9478 37.1243 69.5008 45.2632 69.5008Z" fill="#95D528"/>
<path d="M45.2633 40.228C44.3224 40.228 43.4027 40.3166 42.5107 40.484C49.334 41.7645 54.495 47.7154 54.495 54.8644C54.495 62.0134 49.3339 67.9643 42.5107 69.2448C43.4027 69.4122 44.3224 69.5008 45.2633 69.5008C53.4023 69.5008 60.0001 62.9479 60.0001 54.8644C60.0003 46.7809 53.4023 40.228 45.2633 40.228Z" fill="#89C627"/>
<path fill-rule="evenodd" clip-rule="evenodd" d="M47.8636 53.403L44.8183 57.403C44.693 57.5677 44.499 57.665 44.2923 57.6663H44.2876C44.083 57.6663 43.8896 57.5717 43.763 57.4103L42.1416 55.339C41.915 55.0497 41.9656 54.6303 42.2556 54.4037C42.545 54.1763 42.965 54.227 43.1916 54.5177L44.2803 55.9083L46.803 52.5957C47.0256 52.303 47.4436 52.2457 47.7376 52.469C48.0303 52.6923 48.087 53.1103 47.8636 53.403ZM45.0003 48.333C41.3183 48.333 38.3336 51.3177 38.3336 54.9997C38.3336 58.681 41.3183 61.6663 45.0003 61.6663C48.6823 61.6663 51.667 58.681 51.667 54.9997C51.667 51.3177 48.6823 48.333 45.0003 48.333Z" fill="white"/>
</svg>
