<svg width="60" height="70" viewBox="0 0 60 70" fill="none" xmlns="http://www.w3.org/2000/svg">
<path d="M4.69775 0.499512C2.10324 0.499512 0 2.57539 0 5.13615V64.8613C0 67.4221 2.10324 69.4979 4.69775 69.4979H46.3333C48.9278 69.4979 51.0311 67.4221 51.0311 64.8613V14.797C51.0311 13.8654 50.6561 12.9721 49.9887 12.3132L39.0615 1.52815C38.3941 0.86957 37.4889 0.499512 36.545 0.499512L4.69775 0.499512Z" fill="#F5F5F5"/>
<path d="M49.9891 12.311L42.746 5.16211L42.7202 17.154C42.7186 17.9067 43.3364 18.5179 44.0991 18.5179C44.8607 18.5179 45.478 19.1273 45.478 19.8789V64.8591C45.478 67.4199 43.3748 69.4957 40.7803 69.4957H46.3336C48.9281 69.4957 51.0313 67.4199 51.0313 64.8591V19.4961V14.7947C51.0316 13.8631 50.6567 12.9697 49.9891 12.311V12.311Z" fill="#EAEAEA"/>
<path d="M49.9886 12.3133L39.0614 1.52827C38.7572 1.22802 38.4031 0.988549 38.019 0.815918V8.70546C38.019 11.2662 40.1223 13.3421 42.7168 13.3421H50.7103C50.5355 12.9629 50.2929 12.6136 49.9886 12.3133V12.3133Z" fill="#A8D0D5"/>
<path d="M16.9685 8.15662H6.53369C5.9508 8.15662 5.47852 7.69034 5.47852 7.11518C5.47852 6.54001 5.95094 6.07373 6.53369 6.07373H16.9685C17.5514 6.07373 18.0237 6.54001 18.0237 7.11518C18.0237 7.69034 17.5514 8.15662 16.9685 8.15662Z" fill="#3693BD"/>
<path d="M16.9685 14.4125H6.53369C5.9508 14.4125 5.47852 13.9462 5.47852 13.371C5.47852 12.7959 5.95094 12.3296 6.53369 12.3296H16.9685C17.5514 12.3296 18.0237 12.7959 18.0237 13.371C18.0237 13.9462 17.5514 14.4125 16.9685 14.4125Z" fill="#3693BD"/>
<path d="M45.2632 69.5008C53.4021 69.5008 60.0001 62.9478 60.0001 54.8644C60.0001 46.781 53.4021 40.228 45.2632 40.228C37.1243 40.228 30.5264 46.781 30.5264 54.8644C30.5264 62.9478 37.1243 69.5008 45.2632 69.5008Z" fill="#FF4755"/>
<path d="M45.2633 40.228C44.3224 40.228 43.4027 40.3166 42.5107 40.484C49.334 41.7645 54.495 47.7154 54.495 54.8644C54.495 62.0134 49.3339 67.9643 42.5107 69.2448C43.4027 69.4122 44.3224 69.5008 45.2633 69.5008C53.4023 69.5008 60.0001 62.9479 60.0001 54.8644C60.0003 46.7809 53.4023 40.228 45.2633 40.228Z" fill="#FC2B3A"/>
<path fill-rule="evenodd" clip-rule="evenodd" d="M46.8047 55.8617C47.0654 56.1223 47.0654 56.5437 46.8047 56.8043C46.6747 56.9343 46.504 56.9997 46.3334 56.9997C46.1627 56.9997 45.992 56.9343 45.862 56.8043L45 55.9423L44.138 56.8043C44.008 56.9343 43.8374 56.9997 43.6667 56.9997C43.496 56.9997 43.3254 56.9343 43.1954 56.8043C42.9347 56.5437 42.9347 56.1223 43.1954 55.8617L44.0574 54.9997L43.1954 54.1377C42.9347 53.877 42.9347 53.4557 43.1954 53.195C43.456 52.9343 43.8774 52.9343 44.138 53.195L45 54.057L45.862 53.195C46.1227 52.9343 46.544 52.9343 46.8047 53.195C47.0654 53.4557 47.0654 53.877 46.8047 54.1377L45.9427 54.9997L46.8047 55.8617ZM45 48.333C41.324 48.333 38.3334 51.3237 38.3334 54.9997C38.3334 58.6757 41.324 61.6663 45 61.6663C48.676 61.6663 51.6667 58.6757 51.6667 54.9997C51.6667 51.3237 48.676 48.333 45 48.333Z" fill="white"/>
</svg>
